# xmcd CD database file
# Copyright (C) 1995-1998 Ti Kan
#
# Track frame offsets:
#	150
#	14242
#	31224
#
# Disc length: 601 seconds
#
# Revision: 1
# Processed by: cddbd v1.4PL0 Copyright (c) Steve Scherf et al.
# Submitted via: CDex 1.30Release
#
DISCID=1f025703
DTITLE=kel anne brandt - i know a heartache 
DYEAR=1900
DGENRE=Country
TTITLE0=kel anne brandt - i know a heartache
TTITLE1=kel anne brandt - patsy and me 
TTITLE2=kel anne brandt - two timin, two stepping
EXTD=ID3G:   2
EXTT0=
EXTT1=
EXTT2=
PLAYORDER=
